<?xml version="1.0" encoding="UTF-8" standalone="no"?>
<!-- Created with Inkscape (http://www.inkscape.org/) -->

<svg
   xmlns:dc="http://purl.org/dc/elements/1.1/"
   xmlns:cc="http://creativecommons.org/ns#"
   xmlns:rdf="http://www.w3.org/1999/02/22-rdf-syntax-ns#"
   xmlns:svg="http://www.w3.org/2000/svg"
   xmlns="http://www.w3.org/2000/svg"
   xmlns:sodipodi="http://sodipodi.sourceforge.net/DTD/sodipodi-0.dtd"
   xmlns:inkscape="http://www.inkscape.org/namespaces/inkscape"
   width="575.90253mm"
   height="70.762802mm"
   viewBox="0 0 575.90253 70.762802"
   version="1.1"
   id="svg8"
   inkscape:version="0.92.2 5c3e80d, 2017-08-06"
   sodipodi:docname="name.svg">
  <defs
     id="defs2" />
  <sodipodi:namedview
     id="base"
     pagecolor="#ffffff"
     bordercolor="#666666"
     borderopacity="1.0"
     inkscape:pageopacity="0.0"
     inkscape:pageshadow="2"
     inkscape:zoom="0.49497475"
     inkscape:cx="-418.95355"
     inkscape:cy="-200.07871"
     inkscape:document-units="mm"
     inkscape:current-layer="flowRoot10"
     showgrid="false"
     fit-margin-top="0"
     fit-margin-left="0"
     fit-margin-right="0"
     fit-margin-bottom="0"
     inkscape:window-width="3440"
     inkscape:window-height="1320"
     inkscape:window-x="0"
     inkscape:window-y="0"
     inkscape:window-maximized="1" />
  <metadata
     id="metadata5">
    <rdf:RDF>
      <cc:Work
         rdf:about="">
        <dc:format>image/svg+xml</dc:format>
        <dc:type
           rdf:resource="http://purl.org/dc/dcmitype/StillImage" />
        <dc:title></dc:title>
      </cc:Work>
    </rdf:RDF>
  </metadata>
  <g
     inkscape:label="Layer 1"
     inkscape:groupmode="layer"
     id="layer1"
     transform="translate(-268.01742,-22.254666)">
    <g
       aria-label="Richard Moot"
       transform="matrix(2.214311,0,0,2.214311,114.91857,-252.67886)"
       style="font-style:normal;font-weight:normal;font-size:40px;line-height:1.25;font-family:sans-serif;letter-spacing:0px;word-spacing:0px;fill:#000000;fill-opacity:1;stroke:none"
       id="flowRoot10">
      <path
         d="m 83.46875,141.38086 q 1.269531,0.42969 2.460937,1.83594 1.210938,1.40625 2.421875,3.86718 l 4.003907,7.96875 h -4.238282 l -3.730468,-7.48046 q -1.445313,-2.92969 -2.8125,-3.88672 -1.347657,-0.95703 -3.691407,-0.95703 h -4.296875 v 12.32421 h -3.945312 v -29.16015 h 8.90625 q 5,0 7.460937,2.08984 2.460938,2.08985 2.460938,6.3086 0,2.7539 -1.289063,4.57031 -1.269531,1.8164 -3.710937,2.51953 z m -9.882813,-12.24609 v 10.35156 h 4.960938 q 2.851562,0 4.296875,-1.3086 1.464844,-1.32812 1.464844,-3.88671 0,-2.5586 -1.464844,-3.84766 -1.445313,-1.30859 -4.296875,-1.30859 z"
         style="fill:none;stroke:#000000;stroke-opacity:1"
         id="path18"
         inkscape:connector-curvature="0" />
      <path
         d="m 97.296875,133.17773 h 3.593755 v 21.875 h -3.593755 z m 0,-8.51562 h 3.593755 v 4.55078 h -3.593755 z"
         style="fill:none;stroke:#000000;stroke-opacity:1"
         id="path20"
         inkscape:connector-curvature="0" />
      <path
         d="m 124.13281,134.01758 v 3.35937 q -1.52343,-0.83984 -3.0664,-1.25 -1.52344,-0.42968 -3.08594,-0.42968 -3.49609,0 -5.42969,2.22656 -1.93359,2.20703 -1.93359,6.21094 0,4.0039 1.93359,6.23046 1.9336,2.20704 5.42969,2.20704 1.5625,0 3.08594,-0.41016 1.54297,-0.42969 3.0664,-1.26953 v 3.32031 q -1.5039,0.70313 -3.125,1.05469 -1.60156,0.35156 -3.41797,0.35156 -4.9414,0 -7.85156,-3.10547 -2.91015,-3.10547 -2.91015,-8.3789 0,-5.35157 2.92968,-8.41797 2.94922,-3.06641 8.06641,-3.06641 1.66016,0 3.24219,0.35156 1.58203,0.33203 3.0664,1.01563 z"
         style="fill:none;stroke:#000000;stroke-opacity:1"
         id="path22"
         inkscape:connector-curvature="0" />
      <path
         d="m 148.60547,141.84961 v 13.20312 h -3.59375 V 141.9668 q 0,-3.10547 -1.21094,-4.64844 -1.21094,-1.54297 -3.63281,-1.54297 -2.91016,0 -4.58985,1.85547 -1.67968,1.85547 -1.67968,5.05859 v 12.36328 h -3.61328 v -30.39062 h 3.61328 v 11.91406 q 1.28906,-1.97265 3.02734,-2.94922 1.75781,-0.97656 4.04297,-0.97656 3.76953,0 5.70312,2.34375 1.9336,2.32422 1.9336,6.85547 z"
         style="fill:none;stroke:#000000;stroke-opacity:1"
         id="path24"
         inkscape:connector-curvature="0" />
      <path
         d="m 165.75391,144.05664 q -4.35547,0 -6.03516,0.99609 -1.67969,0.9961 -1.67969,3.39844 0,1.91406 1.25,3.04688 1.26953,1.11328 3.4375,1.11328 2.98828,0 4.78516,-2.10938 1.8164,-2.1289 1.8164,-5.64453 v -0.80078 z m 7.16796,-1.48437 v 12.48046 h -3.59375 v -3.32031 q -1.23046,1.99219 -3.0664,2.94922 -1.83594,0.9375 -4.49219,0.9375 -3.35937,0 -5.35156,-1.875 -1.97266,-1.89453 -1.97266,-5.05859 0,-3.69141 2.46094,-5.56641 2.48047,-1.875 7.38281,-1.875 h 5.03906 v -0.35156 q 0,-2.48047 -1.64062,-3.82813 -1.62109,-1.36718 -4.57031,-1.36718 -1.875,0 -3.65235,0.44921 -1.77734,0.44922 -3.41797,1.34766 v -3.32031 q 1.97266,-0.76172 3.82813,-1.13281 1.85547,-0.39063 3.61328,-0.39063 4.74609,0 7.08984,2.46094 2.34375,2.46094 2.34375,7.46094 z"
         style="fill:none;stroke:#000000;stroke-opacity:1"
         id="path26"
         inkscape:connector-curvature="0" />
      <path
         d="m 193.01953,136.53711 q -0.60547,-0.35156 -1.32812,-0.50781 -0.70313,-0.17578 -1.5625,-0.17578 -3.04688,0 -4.6875,1.99218 -1.6211,1.97266 -1.6211,5.6836 v 11.52343 h -3.61328 v -21.875 h 3.61328 v 3.39844 q 1.13281,-1.99219 2.94922,-2.94922 1.81641,-0.97656 4.41406,-0.97656 0.3711,0 0.82032,0.0586 0.44921,0.0391 0.99609,0.13672 z"
         style="fill:none;stroke:#000000;stroke-opacity:1"
         id="path28"
         inkscape:connector-curvature="0" />
      <path
         d="m 210.55859,136.49805 v -11.83594 h 3.59375 v 30.39062 h -3.59375 v -3.28125 q -1.13281,1.95313 -2.87109,2.91016 -1.71875,0.9375 -4.14063,0.9375 -3.96484,0 -6.46484,-3.16406 -2.48047,-3.16406 -2.48047,-8.32031 0,-5.15625 2.48047,-8.32032 2.5,-3.16406 6.46484,-3.16406 2.42188,0 4.14063,0.95703 1.73828,0.9375 2.87109,2.89063 z m -12.24609,7.63672 q 0,3.96484 1.62109,6.23046 1.64063,2.2461 4.49219,2.2461 2.85156,0 4.49219,-2.2461 1.64062,-2.26562 1.64062,-6.23046 0,-3.96485 -1.64062,-6.21094 -1.64063,-2.26563 -4.49219,-2.26563 -2.85156,0 -4.49219,2.26563 -1.62109,2.24609 -1.62109,6.21094 z"
         style="fill:none;stroke:#000000;stroke-opacity:1"
         id="path30"
         inkscape:connector-curvature="0" />
      <path
         d="m 234.48437,125.89258 h 5.87891 l 7.44141,19.84375 7.48047,-19.84375 h 5.8789 v 29.16015 h -3.84765 v -25.60546 l -7.51954,20 h -3.96484 l -7.51953,-20 v 25.60546 h -3.82813 z"
         style="fill:none;stroke:#000000;stroke-opacity:1"
         id="path32"
         inkscape:connector-curvature="0" />
      <path
         d="m 277.33594,135.69727 q -2.89063,0 -4.57032,2.26562 -1.67968,2.24609 -1.67968,6.17188 0,3.92578 1.66015,6.1914 1.67969,2.2461 4.58985,2.2461 2.87109,0 4.55078,-2.26563 1.67969,-2.26562 1.67969,-6.17187 0,-3.88672 -1.67969,-6.15235 -1.67969,-2.28515 -4.55078,-2.28515 z m 0,-3.04688 q 4.6875,0 7.36328,3.04688 2.67578,3.04687 2.67578,8.4375 0,5.37109 -2.67578,8.4375 -2.67578,3.04687 -7.36328,3.04687 -4.70703,0 -7.38282,-3.04687 -2.65625,-3.06641 -2.65625,-8.4375 0,-5.39063 2.65625,-8.4375 2.67579,-3.04688 7.38282,-3.04688 z"
         style="fill:none;stroke:#000000;stroke-opacity:1"
         id="path34"
         inkscape:connector-curvature="0" />
      <path
         d="m 301.78906,135.69727 q -2.89062,0 -4.57031,2.26562 -1.67969,2.24609 -1.67969,6.17188 0,3.92578 1.66016,6.1914 1.67969,2.2461 4.58984,2.2461 2.8711,0 4.55078,-2.26563 1.67969,-2.26562 1.67969,-6.17187 0,-3.88672 -1.67969,-6.15235 -1.67968,-2.28515 -4.55078,-2.28515 z m 0,-3.04688 q 4.6875,0 7.36328,3.04688 2.67578,3.04687 2.67578,8.4375 0,5.37109 -2.67578,8.4375 -2.67578,3.04687 -7.36328,3.04687 -4.70703,0 -7.38281,-3.04687 -2.65625,-3.06641 -2.65625,-8.4375 0,-5.39063 2.65625,-8.4375 2.67578,-3.04688 7.38281,-3.04688 z"
         style="fill:none;stroke:#000000;stroke-opacity:1"
         id="path36"
         inkscape:connector-curvature="0" />
      <path
         d="m 321.32031,126.9668 v 6.21093 h 7.40235 v 2.79297 h -7.40235 v 11.875 q 0,2.67578 0.72266,3.4375 0.74219,0.76172 2.98828,0.76172 h 3.69141 v 3.00781 h -3.69141 q -4.16016,0 -5.74219,-1.54296 -1.58203,-1.5625 -1.58203,-5.66407 v -11.875 h -2.63672 v -2.79297 h 2.63672 v -6.21093 z"
         style="fill:none;stroke:#000000;stroke-opacity:1"
         id="path38"
         inkscape:connector-curvature="0" />
    </g>
  </g>
</svg>
