<?xml version="1.0" encoding="UTF-8" standalone="no"?>
<svg
   xmlns:dc="http://purl.org/dc/elements/1.1/"
   xmlns:cc="http://creativecommons.org/ns#"
   xmlns:rdf="http://www.w3.org/1999/02/22-rdf-syntax-ns#"
   xmlns:svg="http://www.w3.org/2000/svg"
   xmlns="http://www.w3.org/2000/svg"
   xmlns:sodipodi="http://sodipodi.sourceforge.net/DTD/sodipodi-0.dtd"
   xmlns:inkscape="http://www.inkscape.org/namespaces/inkscape"
   viewBox="0 0 269.33331 269.332"
   height="269.332"
   width="269.33331"
   xml:space="preserve"
   id="svg2"
   version="1.1"
   sodipodi:docname="square_logo.svg"
   inkscape:version="0.92.2 5c3e80d, 2017-08-06"><metadata
     id="metadata4676"><rdf:RDF><cc:Work
         rdf:about=""><dc:format>image/svg+xml</dc:format><dc:type
           rdf:resource="http://purl.org/dc/dcmitype/StillImage" /><dc:title></dc:title></cc:Work></rdf:RDF></metadata><sodipodi:namedview
     pagecolor="#ffffff"
     bordercolor="#666666"
     borderopacity="1"
     objecttolerance="10"
     gridtolerance="10"
     guidetolerance="10"
     inkscape:pageopacity="0"
     inkscape:pageshadow="2"
     inkscape:window-width="1475"
     inkscape:window-height="1062"
     id="namedview4674"
     showgrid="false"
     fit-margin-top="0"
     fit-margin-left="0"
     fit-margin-right="0"
     fit-margin-bottom="0"
     inkscape:zoom="2.5284553"
     inkscape:cx="142.87739"
     inkscape:cy="132.27703"
     inkscape:window-x="0"
     inkscape:window-y="0"
     inkscape:window-maximized="0"
     inkscape:current-layer="g10" /><defs
     id="defs6" /><g
     transform="matrix(1.3333333,0,0,-1.3333333,-141.28533,410.61732)"
     id="g10"><g
       transform="scale(0.1)"
       id="g12"><path
         id="path14"
         d="m 2699.62,1543.98 c 0,-57.68 -46.75,-104.42 -104.41,-104.42 H 1544.19 c -57.67,0 -104.41,46.74 -104.41,104.42 v 1051.09 c 0,57.66 46.74,104.41 104.41,104.41 h 1051.02 c 57.66,0 104.41,-46.75 104.41,-104.41 z m 29.11,1515.65 H 1410.55 c -182.76,0 -330.91,-148.15 -330.91,-330.9 V 1410.54 c 0,-182.75 148.15,-330.9 330.91,-330.9 h 1318.18 c 182.75,0 330.91,148.15 330.91,330.9 v 1318.19 c 0,182.75 -148.16,330.9 -330.91,330.9"
         inkscape:connector-curvature="0"
         style="fill:none;stroke:#000000;stroke-width:40" /><path
         id="path16"
         d="m 1859.55,1799.64 c -33.15,0 -59.91,26.95 -59.91,60.2 v 419.59 c 0,33.24 26.76,60.21 59.91,60.21 h 420.18 c 33.16,0 59.91,-26.97 59.91,-60.21 v -419.59 c 0,-33.25 -26.75,-60.2 -59.91,-60.2 h -420.18"
         inkscape:connector-curvature="0"
         style="fill:none;stroke:#000000;stroke-width:40" /></g></g></svg>