<?xml version="1.0" encoding="UTF-8" standalone="no"?>
<svg
   xmlns:dc="http://purl.org/dc/elements/1.1/"
   xmlns:cc="http://creativecommons.org/ns#"
   xmlns:rdf="http://www.w3.org/1999/02/22-rdf-syntax-ns#"
   xmlns:svg="http://www.w3.org/2000/svg"
   xmlns="http://www.w3.org/2000/svg"
   xmlns:sodipodi="http://sodipodi.sourceforge.net/DTD/sodipodi-0.dtd"
   xmlns:inkscape="http://www.inkscape.org/namespaces/inkscape"
   viewBox="0 0 269.33331 269.332"
   height="269.332"
   width="269.33331"
   xml:space="preserve"
   id="svg2"
   version="1.1"
   sodipodi:docname="too_many_squares.svg"
   inkscape:version="0.92.2 5c3e80d, 2017-08-06"><metadata
     id="metadata4676"><rdf:RDF><cc:Work
         rdf:about=""><dc:format>image/svg+xml</dc:format><dc:type
           rdf:resource="http://purl.org/dc/dcmitype/StillImage" /><dc:title></dc:title></cc:Work></rdf:RDF></metadata><sodipodi:namedview
     pagecolor="#ffffff"
     bordercolor="#666666"
     borderopacity="1"
     objecttolerance="10"
     gridtolerance="10"
     guidetolerance="10"
     inkscape:pageopacity="0"
     inkscape:pageshadow="2"
     inkscape:window-width="1653"
     inkscape:window-height="1291"
     id="namedview4674"
     showgrid="false"
     fit-margin-top="0"
     fit-margin-left="0"
     fit-margin-right="0"
     fit-margin-bottom="0"
     inkscape:zoom="2.5284553"
     inkscape:cx="144.65714"
     inkscape:cy="179.73684"
     inkscape:window-x="0"
     inkscape:window-y="0"
     inkscape:window-maximized="0"
     inkscape:current-layer="g12" /><defs
     id="defs6" /><g
     transform="matrix(1.3333333,0,0,-1.3333333,-141.28533,410.61732)"
     id="g10"><g
       transform="scale(0.1)"
       id="g12"><path
         id="path14"
         d="m 2699.62,2595.29 c 0,57.68 -46.75,104.42 -104.41,104.42 H 1544.19 c -57.67,0 -104.41,-46.74 -104.41,-104.42 V 1544.2 c 0,-57.66 46.74,-104.41 104.41,-104.41 h 1051.02 c 57.66,0 104.41,46.75 104.41,104.41 z m 29.11,-1515.65 H 1410.55 c -182.76,0 -330.91,148.15 -330.91,330.9 v 1318.19 c 0,182.75 148.15,330.9 330.91,330.9 h 1318.18 c 182.75,0 330.91,-148.15 330.91,-330.9 V 1410.54 c 0,-182.75 -148.16,-330.9 -330.91,-330.9"
         inkscape:connector-curvature="0"
         style="fill:none;stroke:#000000;stroke-width:40" /><path
         id="path16"
         d="m 1859.55,1799.64 c -33.15,0 -59.91,26.95 -59.91,60.2 v 419.59 c 0,33.24 26.76,60.21 59.91,60.21 h 420.18 c 33.16,0 59.91,-26.97 59.91,-60.21 v -419.59 c 0,-33.25 -26.75,-60.2 -59.91,-60.2 h -420.18"
         inkscape:connector-curvature="0"
         style="fill:none;stroke:#000000;stroke-width:40" /><path
         id="path14-0"
         d="M 2706.576,1109.0526 H 1427.1092 c -177.3926,0 -321.1916,143.799 -321.1916,321.1819 V 2709.711 c 0,177.3828 143.799,321.1818 321.1916,321.1818 H 2706.576 c 177.3828,0 321.1916,-143.799 321.1916,-321.1818 V 1430.2345 c 0,-177.3829 -143.8088,-321.1819 -321.1916,-321.1819"
         inkscape:connector-curvature="0"
         style="fill:none;stroke:#000000;stroke-width:38.82525253"
         sodipodi:nodetypes="cssssssss" /><path
         id="path14-0-2"
         d="m 2686.2556,1139.2527 h -1238.818 c -171.7567,0 -310.9872,139.2305 -310.9872,310.9779 v 1238.8273 c 0,171.7473 139.2305,310.9778 310.9872,310.9778 h 1238.818 c 171.7473,0 310.9872,-139.2305 310.9872,-310.9778 V 1450.2306 c 0,-171.7474 -139.2399,-310.9779 -310.9872,-310.9779"
         inkscape:connector-curvature="0"
         style="fill:none;stroke:#000000;stroke-width:37.59176636"
         sodipodi:nodetypes="cssssssss" /><path
         id="path14-0-2-4"
         d="M 2674.5895,1168.7534 H 1468.6777 c -167.1944,0 -302.7266,135.5322 -302.7266,302.7175 v 1205.9209 c 0,167.1852 135.5322,302.7174 302.7266,302.7174 h 1205.9118 c 167.1852,0 302.7264,-135.5322 302.7264,-302.7174 V 1471.4709 c 0,-167.1853 -135.5412,-302.7175 -302.7264,-302.7175"
         inkscape:connector-curvature="0"
         style="fill:none;stroke:#000000;stroke-width:36.5932312"
         sodipodi:nodetypes="cssssssss" /><path
         id="path14-0-2-4-8"
         d="M 2656.2768,1201.2423 H 1481.3355 c -162.9005,0 -294.952,132.0514 -294.952,294.9428 v 1174.9503 c 0,162.8916 132.0515,294.943 294.952,294.943 h 1174.9413 c 162.8915,0 294.9516,-132.0514 294.9516,-294.943 V 1496.1851 c 0,-162.8914 -132.0601,-294.9428 -294.9516,-294.9428"
         inkscape:connector-curvature="0"
         style="fill:none;stroke:#000000;stroke-width:35.65343475"
         sodipodi:nodetypes="cssssssss" /><path
         id="path14-0-2-4-8-3"
         d="M 2638.7261,1229.6783 H 1500.5624 c -157.8015,0 -285.7196,127.9179 -285.7196,285.7106 v 1138.1725 c 0,157.7929 127.9181,285.7108 285.7196,285.7108 h 1138.1637 c 157.7928,0 285.7192,-127.9179 285.7192,-285.7108 V 1515.3889 c 0,-157.7927 -127.9264,-285.7106 -285.7192,-285.7106"
         inkscape:connector-curvature="0"
         style="fill:none;stroke:#000000;stroke-width:34.53742599"
         sodipodi:nodetypes="cssssssss" /><path
         id="path14-0-2-4-8-3-9"
         d="M 2631.0308,1248.2909 H 1519.9665 c -154.0443,0 -278.9167,124.8722 -278.9167,278.9079 v 1111.0729 c 0,154.0359 124.8724,278.9081 278.9167,278.9081 h 1111.0643 c 154.0358,0 278.9164,-124.8722 278.9164,-278.9081 V 1527.1988 c 0,-154.0357 -124.8806,-278.9079 -278.9164,-278.9079"
         inkscape:connector-curvature="0"
         style="fill:none;stroke:#000000;stroke-width:33.71509552"
         sodipodi:nodetypes="cssssssss" /><path
         id="path14-0-2-4-8-3-9-0"
         d="M 2614.3182,1278.048 H 1536.1601 c -149.4819,0 -270.6561,121.1739 -270.6561,270.6475 V 2626.862 c 0,149.4738 121.1742,270.6477 270.6561,270.6477 h 1078.1581 c 149.4737,0 270.6557,-121.1739 270.6557,-270.6477 V 1548.6955 c 0,-149.4736 -121.182,-270.6475 -270.6557,-270.6475"
         inkscape:connector-curvature="0"
         style="fill:none;stroke:#000000;stroke-width:32.71656036"
         sodipodi:nodetypes="cssssssss" /><path
         id="path14-0-2-4-8-3-9-0-5"
         d="m 2603.3338,1298.2764 h -1049.123 c -145.4562,0 -263.3672,117.9106 -263.3672,263.3589 v 1049.1312 c 0,145.4484 117.911,263.3591 263.3672,263.3591 h 1049.123 c 145.4484,0 263.367,-117.9107 263.367,-263.3591 V 1561.6353 c 0,-145.4483 -117.9186,-263.3589 -263.367,-263.3589"
         inkscape:connector-curvature="0"
         style="fill:none;stroke:#000000;stroke-width:31.835495"
         sodipodi:nodetypes="cssssssss" /><path
         id="path14-0-2-4-8-3-9-0-5-2"
         d="M 2581.7173,1319.4071 H 1559.6936 c -141.6989,0 -256.5643,114.865 -256.5643,256.5562 v 1022.0316 c 0,141.6914 114.8654,256.5564 256.5643,256.5564 h 1022.0237 c 141.6913,0 256.564,-114.865 256.564,-256.5564 V 1575.9633 c 0,-141.6912 -114.8727,-256.5562 -256.564,-256.5562"
         inkscape:connector-curvature="0"
         style="fill:none;stroke:#000000;stroke-width:31.01316643"
         sodipodi:nodetypes="cssssssss" /><path
         id="path14-0-2-4-8-3-9-0-5-2-2"
         d="m 2564.1184,1345.2663 h -991.053 c -137.4049,0 -248.7895,111.3842 -248.7895,248.7817 v 991.0606 c 0,137.3977 111.3846,248.7819 248.7895,248.7819 h 991.053 c 137.3976,0 248.7893,-111.3842 248.7893,-248.7819 V 1594.048 c 0,-137.3975 -111.3917,-248.7817 -248.7893,-248.7817"
         inkscape:connector-curvature="0"
         style="fill:none;stroke:#000000;stroke-width:30.07336617"
         sodipodi:nodetypes="cssssssss" /><path
         id="path14-0-2-4-8-3-9-0-5-2-2-7"
         d="m 2555.956,1366.4851 h -965.8893 c -133.916,0 -242.4725,108.5561 -242.4725,242.4649 v 965.8967 c 0,133.9091 108.5565,242.4651 242.4725,242.4651 h 965.8893 c 133.909,0 242.4724,-108.556 242.4724,-242.4651 V 1608.95 c 0,-133.9088 -108.5634,-242.4649 -242.4724,-242.4649"
         inkscape:connector-curvature="0"
         style="fill:none;stroke:#000000;stroke-width:29.3097744"
         sodipodi:nodetypes="cssssssss" /><path
         id="path14-0-2-4-8-3-9-0-5-2-2-7-3"
         d="m 2542.3542,1389.3191 h -936.8544 c -129.8905,0 -235.1837,105.2929 -235.1837,235.1763 v 936.8616 c 0,129.8838 105.2932,235.1765 235.1837,235.1765 h 936.8544 c 129.8836,0 235.1836,-105.2927 235.1836,-235.1765 v -936.8616 c 0,-129.8834 -105.3,-235.1763 -235.1836,-235.1763"
         inkscape:connector-curvature="0"
         style="fill:none;stroke:#000000;stroke-width:28.42871475"
         sodipodi:nodetypes="cssssssss" /><path
         id="path16-9"
         d="m 1881.7852,1824.0551 c -29.9289,0 -54.0886,24.3313 -54.0886,54.3504 v 378.8185 c 0,30.0101 24.1597,54.3594 54.0886,54.3594 h 379.3511 c 29.9379,0 54.0886,-24.3493 54.0886,-54.3594 v -378.8185 c 0,-30.0191 -24.1507,-54.3504 -54.0886,-54.3504 h -379.3511"
         inkscape:connector-curvature="0"
         style="fill:none;stroke:#000000;stroke-width:36.11320496" /><path
         id="path16-9-0"
         d="m 1897.3398,1841.2388 c -27.8191,0 -50.2758,22.6161 -50.2758,50.5191 v 352.1143 c 0,27.8946 22.4567,50.5275 50.2758,50.5275 h 352.6094 c 27.8275,0 50.2757,-22.6329 50.2757,-50.5275 v -352.1143 c 0,-27.903 -22.4482,-50.5191 -50.2757,-50.5191 h -352.6094"
         inkscape:connector-curvature="0"
         style="fill:none;stroke:#000000;stroke-width:33.56746674" /><path
         id="path16-9-0-2"
         d="m 1907.8444,1857.7423 c -25.9542,0 -46.9055,21.1 -46.9055,47.1325 v 328.5097 c 0,26.0247 20.9513,47.1403 46.9055,47.1403 h 328.9716 c 25.9621,0 46.9054,-21.1156 46.9054,-47.1403 v -328.5097 c 0,-26.0325 -20.9433,-47.1325 -46.9054,-47.1325 h -328.9716"
         inkscape:connector-curvature="0"
         style="fill:none;stroke:#000000;stroke-width:31.31721687" /><path
         id="path16-9-0-2-3"
         d="m 1915.5881,1878.4702 c -23.7502,0 -42.9224,19.3082 -42.9224,43.1301 v 300.6134 c 0,23.8148 19.1722,43.1373 42.9224,43.1373 h 301.0361 c 23.7574,0 42.9223,-19.3225 42.9223,-43.1373 v -300.6134 c 0,-23.8219 -19.1649,-43.1301 -42.9223,-43.1301 h -301.0361"
         inkscape:connector-curvature="0"
         style="fill:none;stroke:#000000;stroke-width:28.65782928" /><path
         id="path16-9-0-2-3-9"
         d="m 1936.0486,1886.3818 c -22.3939,0 -40.4713,18.2056 -40.4713,40.6671 v 283.4465 c 0,22.4548 18.0774,40.6739 40.4713,40.6739 h 283.845 c 22.4007,0 40.4712,-18.2191 40.4712,-40.6739 v -283.4465 c 0,-22.4615 -18.0705,-40.6671 -40.4712,-40.6671 h -283.845"
         inkscape:connector-curvature="0"
         style="fill:none;stroke:#000000;stroke-width:27.0212841" /><path
         id="path14-0-2-4-8-3-9-0-5-2-2-7-3-0"
         d="m 2531.476,1407.6743 h -917.5566 c -127.2151,0 -230.3393,102.4584 -230.3393,228.8449 v 911.6393 c 0,126.3871 103.1242,228.845 230.3393,228.845 h 917.5566 c 127.208,0 230.339,-102.4579 230.339,-228.845 v -911.6393 c 0,-126.3865 -103.131,-228.8449 -230.339,-228.8449"
         inkscape:connector-curvature="0"
         style="fill:none;stroke:#000000;stroke-width:27.75309181"
         sodipodi:nodetypes="cssssssss" /><path
         id="path14-0-2-4-8-3-9-0-5-2-2-7-3-0-3"
         d="m 2508.8193,1389.2017 h -880.0546 c -122.0155,0 -220.9248,100.7004 -220.9248,224.9184 v 895.9972 c 0,124.2186 98.9093,224.9185 220.9248,224.9185 h 880.0546 c 122.0088,0 220.9246,-100.6999 220.9246,-224.9185 v -895.9972 c 0,-124.218 -98.9158,-224.9184 -220.9246,-224.9184"
         inkscape:connector-curvature="0"
         style="fill:none;stroke:#000000;stroke-width:26.94582748"
         sodipodi:nodetypes="cssssssss" /><path
         id="path14-0-2-4-8-3-9-0-5-2-2-7-3-0-3-9"
         d="m 2522.2055,1407.5873 h -896.6941 c -124.3224,0 -225.1018,100.6747 -225.1018,224.8612 v 895.7692 c 0,124.187 100.7794,224.8611 225.1018,224.8611 h 896.6941 c 124.3155,0 225.1015,-100.6741 225.1015,-224.8611 v -895.7692 c 0,-124.1865 -100.786,-224.8612 -225.1015,-224.8612"
         inkscape:connector-curvature="0"
         style="fill:none;stroke:#000000;stroke-width:27.19590759"
         sodipodi:nodetypes="cssssssss" /><path
         id="path14-0-2-4-8-3-9-0-5-2-2-7-3-0-3-9-8"
         d="m 2527.3542,1393.8642 h -896.694 c -124.3224,0 -225.1018,99.2123 -225.1018,221.5948 v 882.7569 c 0,122.383 100.7794,221.5947 225.1018,221.5947 h 896.694 c 124.3155,0 225.1016,-99.2117 225.1016,-221.5947 V 1615.459 c 0,-122.3825 -100.7861,-221.5948 -225.1016,-221.5948"
         inkscape:connector-curvature="0"
         style="fill:none;stroke:#000000;stroke-width:26.99765587"
         sodipodi:nodetypes="cssssssss" /><path
         id="path16-9-0-2-3-9-6"
         d="m 1946.2193,1894.4147 c -20.6986,0 -37.4074,16.8273 -37.4074,37.5883 v 261.9879 c 0,20.7548 16.7088,37.5946 37.4074,37.5946 h 262.3561 c 20.7048,0 37.4073,-16.8398 37.4073,-37.5946 V 1932.003 c 0,-20.761 -16.7025,-37.5883 -37.4073,-37.5883 h -262.3561"
         inkscape:connector-curvature="0"
         style="fill:none;stroke:#000000;stroke-width:24.9756031" /><path
         id="path16-9-0-2-3-9-6-5"
         d="m 1943.5006,1910.2538 c -19.8509,0 -35.8754,16.1381 -35.8754,36.0489 v 251.2586 c 0,19.9048 16.0245,36.0549 35.8754,36.0549 h 251.6117 c 19.8569,0 35.8753,-16.1501 35.8753,-36.0549 v -251.2586 c 0,-19.9108 -16.0184,-36.0489 -35.8753,-36.0489 h -251.6117"
         inkscape:connector-curvature="0"
         style="fill:none;stroke:#000000;stroke-width:23.9527626" /><path
         id="path16-9-0-2-3-9-6-5-7"
         d="m 1958.7672,1908.801 c -18.8336,0 -34.037,15.3111 -34.037,34.2016 v 238.3834 c 0,18.8849 15.2034,34.2074 34.037,34.2074 h 238.7184 c 18.8394,0 34.037,-15.3225 34.037,-34.2074 v -238.3834 c 0,-18.8905 -15.1976,-34.2016 -34.037,-34.2016 h -238.7184"
         inkscape:connector-curvature="0"
         style="fill:none;stroke:#000000;stroke-width:22.72535324" /><path
         id="path16-9-0-2-3-9-6-5-7-6"
         d="m 1969.4138,1923.8933 c -17.1382,0 -30.9731,13.9329 -30.9731,31.1229 v 216.9247 c 0,17.1849 13.8349,31.1282 30.9731,31.1282 h 217.2296 c 17.1435,0 30.9731,-13.9433 30.9731,-31.1282 v -216.9247 c 0,-17.19 -13.8296,-31.1229 -30.9731,-31.1229 h -217.2296"
         inkscape:connector-curvature="0"
         style="fill:none;stroke:#000000;stroke-width:20.67967224" /><path
         id="path16-9-0-2-3-9-6-5-7-6-2"
         d="m 1969.4138,1923.8933 c -17.1382,0 -30.9731,13.9329 -30.9731,31.1229 v 216.9247 c 0,17.1849 13.8349,31.1282 30.9731,31.1282 h 217.2296 c 17.1435,0 30.9731,-13.9433 30.9731,-31.1282 v -216.9247 c 0,-17.19 -13.8296,-31.1229 -30.9731,-31.1229 h -217.2296"
         inkscape:connector-curvature="0"
         style="fill:none;stroke:#000000;stroke-width:20.67967224" /><path
         id="path16-9-0-2-3-9-6-5-7-6-2-7"
         d="m 1969.4138,1923.8933 c -17.1382,0 -30.9731,13.9329 -30.9731,31.1229 v 216.9247 c 0,17.1849 13.8349,31.1282 30.9731,31.1282 h 217.2296 c 17.1435,0 30.9731,-13.9433 30.9731,-31.1282 v -216.9247 c 0,-17.19 -13.8296,-31.1229 -30.9731,-31.1229 h -217.2296"
         inkscape:connector-curvature="0"
         style="fill:none;stroke:#000000;stroke-width:20.67967224" /><path
         id="path16-9-0-2-3-9-6-5-7-6-2-7-0"
         d="m 1974.8743,1938.075 c -15.7819,0 -28.522,12.8303 -28.522,28.6599 v 199.7578 c 0,15.8249 12.7401,28.6648 28.522,28.6648 h 200.0385 c 15.7868,0 28.522,-12.8399 28.522,-28.6648 v -199.7578 c 0,-15.8296 -12.7352,-28.6599 -28.522,-28.6599 h -200.0385"
         inkscape:connector-curvature="0"
         style="fill:none;stroke:#000000;stroke-width:19.04312897" /><path
         id="path16-9-0-2-3-9-6-5-7-6-2-7-0-3"
         d="m 1984.6498,1952.0775 c -14.0866,0 -25.4582,11.452 -25.4582,25.5811 v 178.2991 c 0,14.1249 11.3716,25.5856 25.4582,25.5856 h 178.5496 c 14.091,0 25.458,-11.4607 25.458,-25.5856 v -178.2991 c 0,-14.1291 -11.367,-25.5811 -25.458,-25.5811 h -178.5496"
         inkscape:connector-curvature="0"
         style="fill:none;stroke:#000000;stroke-width:16.99744797" /></g></g></svg>